<svg xmlns="http://www.w3.org/2000/svg" viewBox="0 0 100 100"><defs><style>.cls-1{fill:#db5f31;}</style></defs><g id="Calque_4" data-name="Calque 4"><path class="cls-1" d="M23,38.64V62.49a8.15,8.15,0,0,0,3.83,7L45.17,80.62a1.93,1.93,0,0,0,2.9-1.74v-27L24.41,37.76A1,1,0,0,0,23,38.64ZM37.19,64.58c1-.37,2.33.61,2.88,2.17s.15,3.13-.9,3.49-2.33-.6-2.88-2.17S36.15,65,37.19,64.58ZM29,49.28c1-.36,2.33.61,2.88,2.17s.15,3.13-.89,3.49-2.34-.6-2.88-2.17S28,49.65,29,49.28Z"/><path class="cls-1" d="M73.92,32.37l-20-12.17a7.46,7.46,0,0,0-7.78,0l-20,12.17a1,1,0,0,0,0,1.75L50,48.38,73.91,34.12A1,1,0,0,0,73.92,32.37ZM50,35.11a2.79,2.79,0,0,1-3-2.5,3,3,0,0,1,6,0A2.78,2.78,0,0,1,50,35.11Z"/><path class="cls-1" d="M75.59,37.76,51.93,51.87v27a1.93,1.93,0,0,0,2.9,1.74L73.2,69.46a8.15,8.15,0,0,0,3.83-7V38.64A1,1,0,0,0,75.59,37.76ZM61.37,71.07c-.55,1.57-1.84,2.54-2.88,2.17s-1.44-1.93-.9-3.49,1.84-2.54,2.88-2.17S61.92,69.51,61.37,71.07Zm6-11c-.55,1.57-1.84,2.54-2.88,2.17s-1.44-1.93-.9-3.49,1.84-2.54,2.88-2.17S67.92,58.51,67.37,60.07Zm6-10c-.55,1.57-1.84,2.54-2.88,2.17s-1.44-1.93-.9-3.49,1.84-2.54,2.88-2.17S73.92,48.51,73.37,50.07Z"/></g></svg>