<svg xmlns="http://www.w3.org/2000/svg" viewBox="0 0 105 25"><defs><style>.cls-1{fill:#db5f31;}.cls-2{fill:#4d0818;}</style></defs><g id="Calque_4" data-name="Calque 4"><path class="cls-1" d="M15.73,21.36a1.73,1.73,0,0,1-1.38-.69,7.59,7.59,0,0,1-1.09-2.3c-.17-.52-.31-1-.43-1.53a13.53,13.53,0,0,1-.25-1.46,2.28,2.28,0,0,1-.61.69,1.53,1.53,0,0,1-.81.17l-2.73,0-2.57-.07c0,.31-.07.63-.09,1s0,.64,0,1a7.87,7.87,0,0,0,0,.84c0,.28.05.55.06.81a1.19,1.19,0,0,1-.57,1.18,2.82,2.82,0,0,1-1.63.45c-.56,0-.84-.25-.84-.74A5.82,5.82,0,0,1,3,19.26l.21-1a4.2,4.2,0,0,0,.07-.7,1.08,1.08,0,0,0-.44-1A.61.61,0,0,1,2.5,16a2.74,2.74,0,0,1,.14-.76A3.94,3.94,0,0,1,3,14.39a1.78,1.78,0,0,1,.44-.53,1.9,1.9,0,0,1,.45-.19,2.69,2.69,0,0,1,.65-.1,28.11,28.11,0,0,1,2.3-5.08A12.32,12.32,0,0,1,9.59,5.18,4.64,4.64,0,0,1,12.53,4a1.51,1.51,0,0,1,1.34.62,3.8,3.8,0,0,1,.42,2.06V7.87a28.31,28.31,0,0,0,.39,4.88,18.61,18.61,0,0,0,1,3.63,6.39,6.39,0,0,0,1.61,2.41,1.82,1.82,0,0,1,.42.46.86.86,0,0,1,.1.41,1.33,1.33,0,0,1-.3.79,2.38,2.38,0,0,1-.78.65A1.91,1.91,0,0,1,15.73,21.36ZM6.65,13.41l2.26-.09c.64,0,1.19,0,1.62,0h1.84c0-.49-.06-1-.09-1.55s0-1.11,0-1.71V8.5a2,2,0,0,0-.17-1,.71.71,0,0,0-.64-.25A3.48,3.48,0,0,0,8.85,8.92,15.27,15.27,0,0,0,6.65,13.41Z"/><path class="cls-1" d="M24.27,21.42a3.85,3.85,0,0,1-1.67-.34,4.5,4.5,0,0,1-1.22-.87,4.07,4.07,0,0,1-.62.8,1.09,1.09,0,0,1-.8.35.94.94,0,0,1-.55-.17.4.4,0,0,1-.21-.46c.26-1.4.48-2.81.67-4.25a35.16,35.16,0,0,0,.27-4.38c0-1.25,0-2.41-.13-3.5a8.23,8.23,0,0,0-.81-3,4.25,4.25,0,0,1-.22-.5,1,1,0,0,1-.1-.44,1.33,1.33,0,0,1,.58-1,2,2,0,0,1,1.24-.47c.63,0,1.05.39,1.28,1.16a12.74,12.74,0,0,1,.34,3.41,31.5,31.5,0,0,1-.17,3.51c-.11,1.06-.24,2-.38,2.71a7.62,7.62,0,0,1,2-2.61,4.37,4.37,0,0,1,2.88-1.06,3.1,3.1,0,0,1,2.5,1.06,4.27,4.27,0,0,1,.91,2.88,8.35,8.35,0,0,1-1.6,4.91,5.88,5.88,0,0,1-1.83,1.62A4.65,4.65,0,0,1,24.27,21.42Zm.6-2.84a2.87,2.87,0,0,0,2.31-.94A3.26,3.26,0,0,0,28,15.46a2.23,2.23,0,0,0-.59-1.67,2.11,2.11,0,0,0-1.56-.59,2.77,2.77,0,0,0-1.73.59,4.84,4.84,0,0,0-1.29,1.55A8.84,8.84,0,0,0,22,17.4a4.09,4.09,0,0,0,1.35.88A4,4,0,0,0,24.87,18.58Z"/><path class="cls-1" d="M35.56,21.42a5.65,5.65,0,0,1-1.82-.29,3.46,3.46,0,0,1-1.36-.82,1.72,1.72,0,0,1-.53-1.26,1.49,1.49,0,0,1,.2-.74.68.68,0,0,1,.64-.36,1.07,1.07,0,0,1,.5.13,6.17,6.17,0,0,0,1.21.49,5.28,5.28,0,0,0,1.55.22,4.81,4.81,0,0,0,1.63-.26c.47-.18.71-.42.71-.74s-.18-.42-.54-.52a13.6,13.6,0,0,0-1.8-.34c-.58-.11-1.14-.23-1.68-.37a2.94,2.94,0,0,1-1.34-.72,2,2,0,0,1-.52-1.51,3.6,3.6,0,0,1,.53-1.88,4.24,4.24,0,0,1,1.62-1.51,5.31,5.31,0,0,1,2.62-.6,6.83,6.83,0,0,1,1.58.18,3.48,3.48,0,0,1,1.26.55,1.12,1.12,0,0,1,.5.92,1.31,1.31,0,0,1-.33.87,2.73,2.73,0,0,1-.76.64,1.51,1.51,0,0,1-.72.25.8.8,0,0,1-.5-.29,2.75,2.75,0,0,0-1-.51,3.91,3.91,0,0,0-1.06-.14,2.89,2.89,0,0,0-1.27.23c-.33.16-.49.36-.49.61a.64.64,0,0,0,.41.55,3.26,3.26,0,0,0,1,.3l1.15.17a6.81,6.81,0,0,1,2.42.72,1.9,1.9,0,0,1,.89,1.8,4,4,0,0,1-.56,2,4.44,4.44,0,0,1-1.63,1.62A4.87,4.87,0,0,1,35.56,21.42Z"/><path class="cls-2" d="M59.61,21.42a7.46,7.46,0,0,1-2.76-.4,2.47,2.47,0,0,1-1.34-1.1,3.65,3.65,0,0,1-.37-1.68,8.57,8.57,0,0,1,.08-1.06c.05-.4.12-.85.19-1.35a32.84,32.84,0,0,0,.47-5.13,22.11,22.11,0,0,0-.12-2.5,4.77,4.77,0,0,0-.7-2,2.68,2.68,0,0,1-.18-.33.81.81,0,0,1-.08-.28A.9.9,0,0,1,55.17,5a3,3,0,0,1,.89-.58,2.4,2.4,0,0,1,1-.24,1,1,0,0,1,1.11.71,7,7,0,0,1,.23,2c0,.33,0,.86-.11,1.59s-.17,1.65-.31,2.77-.25,2-.32,2.81-.1,1.42-.1,1.89a3.87,3.87,0,0,0,.25,1.59,1.38,1.38,0,0,0,.82.75,5,5,0,0,0,1.63.21,11.64,11.64,0,0,0,2.16-.2,9.55,9.55,0,0,0,2-.62l.24-.08.18,0a.56.56,0,0,1,.45.29,1.35,1.35,0,0,1,.21.81,2,2,0,0,1-1.26,1.81A9.47,9.47,0,0,1,59.61,21.42Z"/><path class="cls-2" d="M69.27,21.42a2.72,2.72,0,0,1-2-.76,3.11,3.11,0,0,1-.72-2.21,8.23,8.23,0,0,1,.29-2.1,7.61,7.61,0,0,0,.21-.89,5.47,5.47,0,0,0,.08-.9,1.49,1.49,0,0,0-.71-1.49c-.46-.25-.68-.51-.68-.79a1.33,1.33,0,0,1,.35-.84,3.06,3.06,0,0,1,.88-.7,2.28,2.28,0,0,1,1-.27c1,0,1.5.81,1.5,2.44a8.3,8.3,0,0,1-.12,1.46c-.08.44-.17.87-.28,1.27s-.12.56-.17.84a5.35,5.35,0,0,0-.06.74,1.15,1.15,0,0,0,1.29,1.31,2.94,2.94,0,0,0,2.25-1.29,10.35,10.35,0,0,0,1.74-3.59l0-.5a3.07,3.07,0,0,1,.46-2,1.77,1.77,0,0,1,1.51-.68c.58,0,.87.18.87.55a2.54,2.54,0,0,1-.07.47,5.37,5.37,0,0,1-.2.68c-.17.65-.32,1.34-.44,2.07a11.3,11.3,0,0,0-.19,2,4,4,0,0,0,.32,1.7,1.69,1.69,0,0,0,1.18.9.73.73,0,0,1,.38.15.6.6,0,0,1,.14.48,1.88,1.88,0,0,1-.52,1.24,1.92,1.92,0,0,1-1.52.6q-1.92,0-1.92-2.7c0-.32,0-.79.08-1.42l-.05,0Q72.47,21.42,69.27,21.42Z"/><path class="cls-2" d="M82.84,21.42a3.11,3.11,0,0,1-2.48-1.05,4.27,4.27,0,0,1-.9-2.87,8.13,8.13,0,0,1,.43-2.62,7.73,7.73,0,0,1,1.22-2.31A6.18,6.18,0,0,1,83,10.94a4.52,4.52,0,0,1,2.28-.6,4.09,4.09,0,0,1,1.41.23,4.27,4.27,0,0,1,1.09.61c0-1.19-.08-2.26-.19-3.21a7.64,7.64,0,0,0-.76-2.62A3.8,3.8,0,0,1,86.61,5a1.05,1.05,0,0,1-.06-.33,1,1,0,0,1,.3-.68,2.47,2.47,0,0,1,.75-.53,1.93,1.93,0,0,1,.84-.21,1.16,1.16,0,0,1,1.06.62A4.16,4.16,0,0,1,90,5.52c.07.71.1,1.52.1,2.43a32.54,32.54,0,0,1-.18,3.6c-.12,1.06-.24,2-.34,2.8-.07.53-.13,1-.19,1.37a7.41,7.41,0,0,0-.07.94,2,2,0,0,0,1.6,2.21.49.49,0,0,1,.42.55,2.3,2.3,0,0,1-.17.74,2,2,0,0,1-.62.8,2.09,2.09,0,0,1-1.29.35,1.54,1.54,0,0,1-1.52-.76,5.28,5.28,0,0,1-.39-2.31,7.64,7.64,0,0,1-1.87,2.26A4,4,0,0,1,82.84,21.42Zm.82-2.81a2.67,2.67,0,0,0,1.47-.48,4.81,4.81,0,0,0,1.31-1.28,6.77,6.77,0,0,0,.62-1.14c.18-.43.35-.87.51-1.3a4.3,4.3,0,0,0-3-1.21,3,3,0,0,0-2.26.85,2.91,2.91,0,0,0-.84,2.12,2.52,2.52,0,0,0,.63,1.76A2,2,0,0,0,83.66,18.61Z"/><path class="cls-1" d="M42.08,13.89v4.45a1.51,1.51,0,0,0,.71,1.3l3.43,2.09a.37.37,0,0,0,.55-.33v-5l-4.42-2.64A.18.18,0,0,0,42.08,13.89Zm2.65,4.84c.2-.07.44.11.54.41s0,.58-.16.65-.44-.12-.54-.41S44.54,18.8,44.73,18.73Zm-1.52-2.86c.2-.06.44.12.54.41s0,.58-.17.65-.43-.11-.53-.4S43,15.94,43.21,15.87Z"/><path class="cls-1" d="M51.59,12.72l-3.74-2.28a1.4,1.4,0,0,0-1.45,0l-3.74,2.28a.19.19,0,0,0,0,.32l4.47,2.66L51.59,13A.19.19,0,0,0,51.59,12.72Zm-4.46.51a.48.48,0,1,1,.56-.47A.52.52,0,0,1,47.13,13.23Z"/><path class="cls-1" d="M51.91,13.72l-4.42,2.64v5a.36.36,0,0,0,.54.33l3.43-2.09a1.52,1.52,0,0,0,.72-1.3V13.89A.18.18,0,0,0,51.91,13.72Zm-2.66,6.22c-.1.3-.34.48-.54.41s-.27-.36-.16-.65.34-.48.53-.41S49.35,19.65,49.25,19.94Zm1.12-2.05c-.1.29-.34.47-.54.4s-.27-.36-.16-.65.34-.47.53-.4S50.47,17.6,50.37,17.89ZM51.49,16c-.1.29-.34.47-.54.41s-.27-.36-.16-.66.34-.47.53-.4S51.59,15.73,51.49,16Z"/><path class="cls-2" d="M92.4,13.89v4.45a1.52,1.52,0,0,0,.72,1.3l3.43,2.09a.36.36,0,0,0,.54-.33v-5l-4.42-2.64A.18.18,0,0,0,92.4,13.89Zm2.66,4.84c.19-.07.43.11.54.41s0,.58-.17.65-.44-.12-.54-.41S94.86,18.8,95.06,18.73Zm-1.52-2.86c.19-.06.43.12.53.41s0,.58-.16.65-.44-.11-.54-.4S93.34,15.94,93.54,15.87Z"/><path class="cls-2" d="M101.92,12.72l-3.74-2.28a1.42,1.42,0,0,0-1.46,0L93,12.72A.18.18,0,0,0,93,13l4.46,2.66L101.92,13A.19.19,0,0,0,101.92,12.72Zm-4.46.51a.48.48,0,1,1,.56-.47A.52.52,0,0,1,97.46,13.23Z"/><path class="cls-2" d="M102.23,13.72l-4.42,2.64v5a.36.36,0,0,0,.54.33l3.43-2.09a1.5,1.5,0,0,0,.72-1.3V13.89A.18.18,0,0,0,102.23,13.72Zm-2.66,6.22c-.1.3-.34.48-.53.41s-.27-.36-.17-.65.34-.48.54-.41S99.68,19.65,99.57,19.94Zm1.12-2.05c-.1.29-.34.47-.53.4s-.27-.36-.17-.65.34-.47.54-.4S100.8,17.6,100.69,17.89ZM101.82,16c-.11.29-.35.47-.54.41s-.27-.36-.17-.66.34-.47.54-.4S101.92,15.73,101.82,16Z"/></g></svg>