<svg xmlns="http://www.w3.org/2000/svg" viewBox="0 0 42 20"><defs><style>.cls-1{fill:#db5f31;}.cls-2{fill:#2a707a;}.cls-3{fill:none;}</style></defs><g id="Calque_4" data-name="Calque 4"><path class="cls-1" d="M14.23,18.47a1.71,1.71,0,0,1-1.38-.7,7.4,7.4,0,0,1-1.09-2.29c-.17-.53-.32-1-.43-1.54a11.15,11.15,0,0,1-.25-1.46,2.22,2.22,0,0,1-.62.7,1.56,1.56,0,0,1-.8.17c-.86,0-1.77,0-2.73,0l-2.57-.07q-.06.48-.09,1c0,.33,0,.65,0,1a7.87,7.87,0,0,0,0,.84c0,.28.05.55.06.81A1.21,1.21,0,0,1,3.76,18a2.89,2.89,0,0,1-1.63.44c-.56,0-.84-.24-.84-.73a6.07,6.07,0,0,1,.23-1.34c.09-.4.16-.75.21-1a3.46,3.46,0,0,0,.08-.69,1.07,1.07,0,0,0-.44-1A.62.62,0,0,1,1,13.09a2.68,2.68,0,0,1,.14-.76,4.2,4.2,0,0,1,.38-.83A2.2,2.2,0,0,1,2,11a1.91,1.91,0,0,1,.45-.18,3.23,3.23,0,0,1,.65-.11,28.43,28.43,0,0,1,2.3-5.08,12.23,12.23,0,0,1,2.72-3.3A4.64,4.64,0,0,1,11,1.12a1.5,1.5,0,0,1,1.33.62,3.77,3.77,0,0,1,.42,2.06V5a28.35,28.35,0,0,0,.4,4.88,17.18,17.18,0,0,0,1,3.62,6.41,6.41,0,0,0,1.6,2.42,1.54,1.54,0,0,1,.42.46.83.83,0,0,1,.11.4,1.32,1.32,0,0,1-.31.79,2.61,2.61,0,0,1-.77.66A2,2,0,0,1,14.23,18.47ZM5.15,10.52l2.25-.1c.65,0,1.19,0,1.63,0h1.84c0-.49-.07-1-.09-1.54s0-1.12,0-1.71V5.61a2,2,0,0,0-.17-1,.73.73,0,0,0-.65-.25A3.48,3.48,0,0,0,7.35,6,14.91,14.91,0,0,0,5.15,10.52Z"/><path class="cls-2" d="M35.12,18.52a7.7,7.7,0,0,1-2.76-.39A2.46,2.46,0,0,1,31,17a3.52,3.52,0,0,1-.37-1.67,7.11,7.11,0,0,1,.08-1.07q.07-.58.18-1.35a31.46,31.46,0,0,0,.47-5.12,22.11,22.11,0,0,0-.12-2.5,4.74,4.74,0,0,0-.69-2A2,2,0,0,1,30.4,3a.63.63,0,0,1-.08-.28,1,1,0,0,1,.36-.66,3.38,3.38,0,0,1,.9-.57,2.39,2.39,0,0,1,1-.24A1,1,0,0,1,33.69,2a7,7,0,0,1,.22,2c0,.33,0,.86-.1,1.59s-.18,1.65-.32,2.77-.24,2-.31,2.81-.11,1.41-.11,1.88a4.05,4.05,0,0,0,.25,1.59,1.4,1.4,0,0,0,.83.75,5,5,0,0,0,1.63.21,11.45,11.45,0,0,0,2.15-.2,9.34,9.34,0,0,0,2-.61l.24-.08.18,0a.58.58,0,0,1,.45.29,1.35,1.35,0,0,1,.21.81,2,2,0,0,1-1.26,1.82A9.48,9.48,0,0,1,35.12,18.52Z"/><path class="cls-1" d="M17.6,11v4.46a1.53,1.53,0,0,0,.71,1.3l3.43,2.08a.37.37,0,0,0,.55-.33v-5l-4.42-2.63A.18.18,0,0,0,17.6,11Zm2.65,4.84c.2-.06.44.12.54.41s0,.58-.17.65-.43-.11-.53-.4S20.06,15.9,20.25,15.83ZM18.73,13c.2-.07.44.11.54.4s0,.59-.17.66-.43-.12-.53-.41S18.54,13.05,18.73,13Z"/><path class="cls-2" d="M27.42,10.83,23,13.46v5a.36.36,0,0,0,.54.33L27,16.75a1.53,1.53,0,0,0,.71-1.3V11A.18.18,0,0,0,27.42,10.83Zm-2.65,6.22c-.1.29-.34.47-.54.4s-.27-.36-.17-.65.35-.47.54-.4S24.87,16.76,24.77,17.05ZM25.89,15c-.1.3-.34.48-.54.41s-.27-.36-.17-.65.35-.48.54-.41S26,14.7,25.89,15ZM27,13.13c-.1.29-.34.47-.54.4s-.27-.36-.17-.65.35-.47.54-.41S27.11,12.83,27,13.13Z"/><path class="cls-3" d="M22.65,10.33a.52.52,0,0,0,.56-.46.52.52,0,0,0-.56-.47h0v.93Z"/><path class="cls-3" d="M22.09,9.87a.52.52,0,0,0,.56.46V9.4A.52.52,0,0,0,22.09,9.87Z"/><path class="cls-2" d="M27.11,9.82,23.37,7.55a1.34,1.34,0,0,0-.72-.21V9.4h0a.52.52,0,0,1,.56.47.52.52,0,0,1-.56.46h0v2.48l4.46-2.66A.2.2,0,0,0,27.11,9.82Z"/><path class="cls-1" d="M22.09,9.87a.52.52,0,0,1,.56-.47V7.34a1.35,1.35,0,0,0-.73.21L18.18,9.82a.2.2,0,0,0,0,.33l4.47,2.66V10.33A.52.52,0,0,1,22.09,9.87Z"/></g></svg>